<?xml version="1.0" encoding="UTF-8"?>
<svg xmlns="http://www.w3.org/2000/svg" version="1.1" viewBox="0 0 100 125">
  <defs>
    <style>
      .cls-1 {
        fill-rule: evenodd;
      }
    </style>
  </defs>
  <!-- Generator: Adobe Illustrator 28.7.1, SVG Export Plug-In . SVG Version: 1.2.0 Build 142)  -->
  <g>
    <g id="Layer_1">
      <path class="cls-1" d="M47.2,2.1c-2.9.3-6.9,1.3-9.5,2.4-6.6,2.8-11.7,7.3-15,13.3-2.3,4.2-3.2,7.9-3.2,12.8,0,10.1,5.4,19.4,14.3,24.8,6.7,4,14.9,5.4,22.6,3.7,4.1-.9,8.2-2.6,11.6-4.9,1.6-1.1,4.3-3.5,5.5-4.9,2.6-3,4.8-7.1,5.9-10.9.4-1.2.8-3.2,1-4.7.2-1.5.2-5.2,0-6.8-.9-6.4-4.1-12.3-9.3-16.9-4.5-4-10.1-6.6-16.3-7.6-1.8-.3-5.7-.4-7.6-.2ZM54.4,20c7.3,1,14.6,3.6,20,7.2,2,1.3,2.3,1.7,2,2.5-.4.9-4,3-8,4.9-4.9,2.2-9.9,3.6-15.1,4.2-2.2.2-6.5,0-8.8-.3-4.5-.7-8-1.8-12.5-3.7-2.4-1-4-1.9-6.3-3.3-2.4-1.5-2.7-1.9-2.1-2.8.4-.5,2.2-1.8,4.1-2.8,6-3.4,13.6-5.6,20.7-6,1.2,0,4,0,5.8.3ZM48.3,22.7c-2.5.5-4.6,2.4-5.2,4.6-.7,2.5,0,4.8,1.9,6.6,1.7,1.6,4.1,2.3,6.5,1.8,1.5-.3,2.6-.8,3.7-1.9,1.6-1.4,2.2-2.8,2.2-4.7s-.7-3.3-2.2-4.7c-1.1-1-1.9-1.4-3.3-1.7-1-.2-2.5-.2-3.5,0ZM26.7,68.9c2.2-1.9,4.8-3.9,5.3-4.1.2-.1.3-.2.4-.2.1,0,.2,0,.5.1.6.2.7.5.8,2.5v1.9c0,0,.6,1.2.6,1.2,1.3,2.8,9,19.3,9.4,20.1.5,1.1.9,1.6,1.5,1.6.4,0,.5,0,.8-.2l.4-.3v-8.8c0,0,.1-8.8.1-8.8l.3-.6c.4-.7,1.2-1.5,1.9-1.7,1.3-.4,2.7,0,3.5.9.2.2.3.3.4.4.5.6.5,1.7.5,9.6,0,6.7.1,8.8.2,9,.5.8,1.7.6,2.2-.3.1-.2.7-1.6,1.4-3,.7-1.4,2.1-4.7,3.3-7.2,2-4.3,3-6.4,4.8-10.4l.8-1.8v-1.9c0,0,.2-1.9.2-1.9l.4-.3c.7-.6,1-.4,3.7,1.6,3.8,3,7.1,6.1,9.3,8.8,2.8,3.5,4.5,6.5,5.1,9.2.3,1.3.3,6.6,0,7.8-.6,2.5-2.3,4.2-4.7,4.6-.6,0-8.7.1-30.6,0h-29.8s-1-.5-1-.5c-1.2-.5-2.1-1.3-2.7-2.3-.8-1.3-.8-1.7-.9-4.9,0-3.1,0-4.3.5-5.9,1.3-4.1,5.7-9.9,11.2-14.6Z"/>
    </g>
  </g>
</svg>